<?xml version="1.0" standalone="no"?>
<!DOCTYPE svg PUBLIC "-//W3C//DTD SVG 20010904//EN"
 "http://www.w3.org/TR/2001/REC-SVG-20010904/DTD/svg10.dtd">
<svg version="1.0" xmlns="http://www.w3.org/2000/svg"
 width="928.000000pt" height="928.000000pt" viewBox="0 0 928.000000 928.000000"
 preserveAspectRatio="xMidYMid meet">
<metadata>
Created by potrace 1.11, written by Peter Selinger 2001-2013
</metadata>
<g transform="translate(0.000000,928.000000) scale(0.100000,-0.100000)"
fill="#000000" stroke="none">
<path d="M6297 9024 c-1 -1 -22 -5 -47 -9 -71 -10 -93 -14 -128 -24 -18 -5
-35 -10 -37 -10 -14 1 -155 -57 -195 -79 -43 -24 -112 -69 -155 -101 -63 -49
-216 -215 -253 -277 -40 -67 -117 -234 -107 -234 3 0 0 -12 -6 -27 -6 -16 -12
-41 -14 -56 -2 -15 -7 -47 -11 -70 -4 -23 -8 -1174 -9 -2557 -2 -1709 -6
-2529 -13 -2560 -18 -78 -20 -84 -43 -145 -49 -131 -119 -237 -229 -344 -58
-56 -148 -126 -205 -157 -146 -80 -232 -113 -355 -134 -62 -11 -240 -14 -305
-6 -149 21 -220 39 -300 78 -86 43 -182 109 -245 168 -30 28 -79 72 -108 98
-29 26 -67 60 -85 75 -45 41 -183 137 -195 137 -6 0 -12 4 -14 8 -4 10 -91 55
-170 87 -59 24 -160 52 -218 60 -48 6 -199 7 -230 0 -14 -3 -41 -7 -60 -10
-59 -8 -199 -62 -269 -104 -227 -135 -393 -316 -482 -528 -24 -56 -34 -90 -55
-188 -9 -41 -10 -250 -2 -305 37 -243 184 -486 459 -760 117 -116 140 -137
254 -226 304 -237 653 -410 1030 -510 6 -1 69 -16 140 -32 127 -29 151 -34
265 -47 30 -4 66 -9 80 -11 186 -30 688 -18 870 21 14 3 43 8 65 11 84 11 296
64 393 98 23 8 43 15 45 15 3 0 18 5 92 33 33 12 63 21 68 20 4 -1 7 2 7 7 0
8 56 25 73 22 4 0 7 3 7 9 0 5 4 10 9 10 13 0 220 103 291 144 343 200 673
492 917 811 47 63 163 233 163 241 0 4 6 15 14 23 47 53 244 463 238 494 -1 4
2 7 8 7 6 0 9 3 8 8 -2 4 2 21 9 37 18 47 63 197 67 225 3 14 5 25 6 25 4 0
32 128 45 205 8 50 23 155 24 170 0 8 3 56 7 105 10 112 10 5086 1 5175 -4 36
-11 80 -16 98 -5 17 -8 32 -6 32 2 0 -7 30 -19 68 -58 170 -131 287 -256 410
-46 45 -144 122 -156 122 -3 0 -18 8 -32 18 -63 43 -304 129 -339 120 -4 -1
-28 2 -54 6 -41 7 -227 15 -232 10z"/>
</g>
</svg>
